<svg xmlns="http://www.w3.org/2000/svg" xmlns:xlink="http://www.w3.org/1999/xlink" viewBox="420 240 660 270" preserveAspectRatio="xMidYMid meet" version="1.0">
  <path fill="#3b3a3b" d="M 600.757812 324.871094 C 598.414062 310.144531 591.722656 297.652344 581.175781 287.199219 C 573.332031 279.425781 564.050781 273.875 553.753906 269.988281 C 551.925781 269.300781 550.050781 268.734375 548.195312 268.105469 C 548.671875 268.734375 549.222656 269.292969 549.84375 269.78125 C 556.855469 276.035156 562.863281 283.085938 567.15625 291.519531 C 575.714844 308.339844 576.476562 325.464844 569.03125 342.835938 C 564.71875 352.894531 558.238281 361.578125 551.304688 369.945312 C 548.527344 373.292969 545.746094 376.644531 543.023438 380.03125 C 542.621094 380.488281 542.285156 380.992188 542.015625 381.535156 C 541.746094 382.082031 541.550781 382.652344 541.433594 383.25 C 541.3125 383.847656 541.269531 384.449219 541.308594 385.058594 C 541.347656 385.667969 541.464844 386.257812 541.660156 386.835938 C 543.246094 391.890625 544.890625 396.917969 546.273438 402.003906 C 547.808594 407.425781 548.84375 412.945312 549.382812 418.554688 C 549.675781 424.621094 548.636719 428.835938 547.640625 431.402344 C 547.5625 429.796875 547.394531 428.207031 547.132812 426.625 C 545.480469 416.472656 541.167969 407.410156 535.59375 398.878906 C 533.574219 395.757812 531.21875 392.8125 529.023438 389.777344 C 527.171875 387.195312 525.820312 384.339844 526.6875 381.152344 C 527.296875 378.710938 528.316406 376.457031 529.75 374.390625 C 532.742188 370.34375 536.089844 366.539062 539.402344 362.730469 C 545 356.289062 550.691406 349.921875 555.277344 342.675781 C 561.566406 332.742188 564.710938 321.992188 563.871094 310.171875 C 562.722656 294.117188 556.175781 280.734375 544.070312 270.125 C 541.542969 267.902344 538.773438 265.910156 535.300781 265.386719 C 526.894531 264.050781 518.472656 263.921875 510.027344 265.003906 C 503.480469 265.828125 497.132812 267.433594 490.976562 269.808594 C 484.820312 272.183594 479.039062 275.265625 473.632812 279.050781 C 464.261719 285.625 456.753906 293.890625 451.488281 304.070312 C 442.785156 320.90625 441.851562 338.425781 447.222656 356.425781 C 450.730469 368.179688 456.324219 379.003906 462.359375 389.601562 C 470.15625 403.25 479.164062 416.15625 487.757812 429.3125 C 491.503906 435.046875 495.394531 440.691406 498.878906 446.574219 C 503.578125 454.449219 507.933594 462.507812 512.4375 470.476562 C 514.699219 474.472656 516.878906 478.523438 519.21875 482.476562 C 521.644531 486.578125 526.601562 486.652344 528.972656 482.546875 C 533.425781 474.839844 537.738281 467.046875 542.070312 459.292969 C 545.609375 452.949219 548.886719 446.460938 552.625 440.238281 C 557.679688 431.796875 563.148438 423.589844 568.292969 415.207031 C 573.953125 406.027344 579.652344 396.855469 585.007812 387.5 C 590.683594 377.585938 595.421875 367.226562 598.59375 356.1875 C 601.574219 345.871094 602.457031 335.464844 600.757812 324.871094 Z M 556.277344 307.4375 C 556.789062 311.398438 556.480469 315.296875 555.359375 319.125 C 554.628906 321.65625 553.039062 322.859375 550.390625 322.886719 C 546.902344 322.929688 543.414062 322.886719 539.925781 322.886719 L 529.671875 322.886719 C 526.992188 322.886719 525.949219 321.492188 526.636719 318.929688 C 527.683594 315.011719 528.707031 311.089844 529.699219 307.15625 C 530.496094 304.027344 531.855469 302.898438 535.074219 302.886719 C 540.40625 302.886719 545.738281 302.886719 551.070312 302.886719 C 554.050781 302.921875 555.851562 304.476562 556.253906 307.4375 Z M 502.628906 294.355469 C 504.023438 292.796875 505.507812 291.328125 507.074219 289.945312 C 512.894531 284.753906 519.417969 280.847656 527.171875 279.328125 C 532.191406 278.347656 537.140625 278.425781 541.871094 280.613281 C 547.253906 283.105469 550.648438 287.367188 552.445312 292.933594 C 553.3125 295.625 552.132812 297.171875 549.292969 297.179688 C 541.867188 297.179688 534.441406 297.179688 527.015625 297.179688 C 519.601562 297.179688 512.175781 297.179688 504.734375 297.179688 C 504.324219 297.179688 503.921875 297.125 503.527344 297.019531 C 502.035156 296.621094 501.597656 295.515625 502.628906 294.355469 Z M 486.929688 319.011719 C 488.550781 314.507812 490.730469 310.296875 493.46875 306.371094 C 493.808594 305.851562 494.203125 305.378906 494.660156 304.957031 C 495.117188 304.535156 495.617188 304.171875 496.164062 303.878906 C 496.710938 303.582031 497.285156 303.355469 497.886719 303.203125 C 498.488281 303.050781 499.101562 302.972656 499.722656 302.972656 C 506.617188 302.894531 513.511719 302.863281 520.410156 302.917969 C 522.835938 302.917969 524.242188 304.683594 523.640625 307.085938 C 522.59375 311.253906 521.40625 315.394531 520.050781 319.476562 C 519.289062 321.78125 517.453125 322.945312 514.914062 322.917969 C 510.730469 322.875 506.539062 322.917969 502.355469 322.917969 L 489.792969 322.917969 C 487.152344 322.902344 486.058594 321.488281 486.929688 319.011719 Z M 488.445312 368.394531 C 487 369.601562 485.683594 369.480469 484.972656 367.746094 C 483.820312 365.164062 482.9375 362.496094 482.332031 359.734375 C 481.59375 355.800781 481.324219 351.777344 480.882812 347.785156 C 481.257812 342.988281 481.480469 338.238281 482.742188 333.632812 C 483.722656 330.046875 485.488281 328.671875 489.203125 328.65625 C 496.617188 328.621094 504.042969 328.605469 511.484375 328.617188 C 514.378906 328.617188 515.5625 330.386719 514.070312 332.894531 C 510.8125 338.394531 507.601562 343.949219 503.886719 349.140625 C 499.472656 355.300781 494.554688 361.097656 489.84375 367.039062 C 489.425781 367.535156 488.960938 367.988281 488.449219 368.394531 Z M 491.832031 396.410156 C 491.453125 395.695312 491.128906 394.953125 490.851562 394.191406 C 490.722656 393.546875 490.664062 392.894531 490.667969 392.234375 C 490.808594 387.390625 492.214844 382.863281 493.996094 378.421875 C 497.472656 369.757812 502.585938 362.011719 507.640625 354.242188 C 511.6875 348.023438 515.636719 341.730469 519.597656 335.445312 C 520.355469 334.238281 520.921875 332.917969 521.617188 331.65625 C 521.871094 331.179688 522.1875 330.75 522.558594 330.363281 C 522.933594 329.976562 523.355469 329.648438 523.820312 329.382812 C 524.289062 329.113281 524.78125 328.914062 525.304688 328.785156 C 525.828125 328.65625 526.359375 328.601562 526.894531 328.621094 C 533.710938 328.621094 540.523438 328.621094 547.335938 328.621094 C 550.085938 328.621094 551.308594 330.4375 549.863281 332.78125 C 547.859375 336.125 545.621094 339.304688 543.152344 342.316406 C 537.867188 348.632812 531.527344 353.894531 525.363281 359.3125 C 516.167969 367.402344 507.035156 375.535156 499.707031 385.4375 C 497.460938 388.46875 495.519531 391.714844 493.394531 394.828125 C 492.921875 395.40625 492.40625 395.933594 491.835938 396.410156 Z M 500.859375 426.875 C 498.691406 426.875 497.222656 425.972656 496.710938 424.039062 C 495.699219 420.285156 494.761719 416.507812 493.964844 412.699219 C 493.457031 410.292969 494.597656 408.679688 496.929688 408.105469 C 506.242188 405.800781 515.554688 403.515625 524.875 401.238281 C 525.359375 401.097656 525.851562 401.03125 526.359375 401.042969 C 526.863281 401.058594 527.355469 401.148438 527.828125 401.316406 C 528.304688 401.488281 528.746094 401.726562 529.144531 402.035156 C 529.546875 402.339844 529.890625 402.703125 530.175781 403.121094 C 533.257812 407.164062 535.640625 411.585938 537.328125 416.386719 C 538.277344 419.128906 537.328125 420.800781 534.488281 421.28125 C 523.574219 423.125 512.660156 424.957031 501.738281 426.769531 C 501.363281 426.832031 501.011719 426.855469 500.859375 426.875 Z M 536.503906 445.390625 C 532.738281 449.179688 528.039062 450.582031 522.8125 450.339844 C 516.238281 450.035156 511.121094 446.832031 506.84375 442.113281 C 505.3125 440.394531 503.921875 438.570312 502.679688 436.632812 C 501.027344 434.105469 501.8125 432.628906 504.796875 432.125 C 514.054688 430.5625 523.3125 428.953125 532.566406 427.371094 C 533.859375 427.148438 535.148438 426.902344 536.453125 426.757812 C 538.886719 426.5 540.304688 427.542969 540.753906 429.933594 C 540.941406 430.945312 540.941406 431.957031 541.027344 432.96875 C 540.945312 437.664062 539.875 441.972656 536.480469 445.390625 Z M 536.503906 445.390625 " fill-opacity="1" fill-rule="nonzero"/>

  <g transform="translate(0, 29)">
    <path fill="#3b3a3b" d="M 948.195312 278.550781 C 947.417969 278.558594 946.671875 278.414062 945.957031 278.117188 C 945.273438 277.832031 944.675781 277.429688 944.15625 276.902344 C 943.636719 276.378906 943.238281 275.773438 942.957031 275.09375 C 942.738281 274.570312 942.601562 274.027344 942.542969 273.464844 C 942.488281 272.898438 942.511719 272.339844 942.621094 271.78125 C 942.726562 271.226562 942.914062 270.699219 943.179688 270.195312 C 943.441406 269.695312 943.773438 269.242188 944.171875 268.839844 C 944.691406 268.3125 945.296875 267.90625 945.980469 267.625 C 946.699219 267.328125 947.449219 267.183594 948.226562 267.191406 C 949 267.183594 949.75 267.324219 950.46875 267.617188 C 951.152344 267.890625 951.753906 268.289062 952.273438 268.8125 C 952.785156 269.335938 953.183594 269.933594 953.460938 270.609375 C 953.75 271.328125 953.894531 272.070312 953.894531 272.847656 C 953.894531 273.621094 953.75 274.363281 953.460938 275.082031 C 953.175781 275.769531 952.769531 276.375 952.242188 276.902344 C 951.722656 277.429688 951.117188 277.832031 950.433594 278.117188 C 949.71875 278.414062 948.972656 278.558594 948.195312 278.550781 Z M 948.195312 277.667969 C 948.851562 277.675781 949.484375 277.550781 950.089844 277.296875 C 950.660156 277.058594 951.164062 276.71875 951.605469 276.285156 C 952.046875 275.847656 952.382812 275.34375 952.617188 274.769531 C 952.859375 274.160156 952.976562 273.523438 952.972656 272.867188 C 952.980469 272.21875 952.859375 271.589844 952.617188 270.988281 C 952.382812 270.414062 952.046875 269.910156 951.605469 269.472656 C 951.171875 269.03125 950.664062 268.695312 950.089844 268.460938 C 949.484375 268.214844 948.855469 268.09375 948.199219 268.101562 C 947.542969 268.09375 946.90625 268.214844 946.292969 268.460938 C 945.71875 268.6875 945.210938 269.027344 944.777344 269.472656 C 944.453125 269.820312 944.179688 270.207031 943.964844 270.632812 C 943.75 271.058594 943.597656 271.503906 943.507812 271.972656 C 943.417969 272.441406 943.394531 272.914062 943.4375 273.390625 C 943.484375 273.867188 943.59375 274.324219 943.765625 274.769531 C 944.003906 275.34375 944.339844 275.847656 944.777344 276.285156 C 945.214844 276.726562 945.71875 277.066406 946.292969 277.296875 C 946.902344 277.550781 947.535156 277.671875 948.195312 277.667969 Z M 945.84375 276.039062 L 945.84375 269.699219 L 948.484375 269.699219 C 949.210938 269.65625 949.863281 269.851562 950.445312 270.296875 C 950.667969 270.503906 950.84375 270.75 950.96875 271.03125 C 951.089844 271.3125 951.152344 271.605469 951.152344 271.914062 C 951.152344 272.21875 951.089844 272.515625 950.96875 272.796875 C 950.84375 273.078125 950.667969 273.320312 950.445312 273.53125 C 949.859375 273.957031 949.207031 274.148438 948.484375 274.105469 L 947.230469 274.105469 L 947.230469 276.039062 Z M 947.210938 273.003906 L 948.402344 273.003906 C 948.785156 273.03125 949.136719 272.929688 949.449219 272.707031 C 949.710938 272.492188 949.832031 272.214844 949.816406 271.878906 C 949.835938 271.539062 949.714844 271.269531 949.449219 271.058594 C 949.132812 270.84375 948.785156 270.746094 948.402344 270.769531 L 947.183594 270.769531 Z M 949.914062 276.039062 L 948.335938 273.613281 L 949.710938 273.613281 L 951.289062 276.039062 Z M 949.914062 276.039062 " fill-opacity="1" fill-rule="nonzero"/>
    <path fill="#3b3a3b" d="M 689.609375 269.363281 C 704.339844 274.421875 716.855469 286.671875 716.855469 302.964844 C 716.855469 318.523438 704.722656 330.492188 690.625 335.648438 C 684.5625 337.871094 678.304688 338.976562 671.847656 338.960938 C 665.449219 338.964844 659.253906 337.859375 653.25 335.644531 C 639.261719 330.488281 627.113281 318.425781 627.113281 302.960938 C 627.113281 286.757812 639.628906 274.421875 654.359375 269.359375 C 660.03125 267.4375 665.859375 266.484375 671.847656 266.503906 C 677.925781 266.476562 683.847656 267.433594 689.609375 269.363281 Z M 703.789062 302.964844 C 703.789062 285.472656 686.019531 276.355469 671.847656 276.355469 C 657.488281 276.355469 640.277344 285.457031 640.277344 302.964844 C 640.277344 320.472656 657.765625 328.925781 671.847656 328.925781 C 685.742188 328.925781 703.789062 320.476562 703.789062 302.964844 Z M 703.789062 302.964844 " fill-opacity="1" fill-rule="nonzero"/>
    <path fill="#3b3a3b" d="M 791.078125 267.707031 L 802.398438 267.707031 L 802.398438 337.472656 L 787.578125 337.472656 L 740.636719 278.382812 L 740.726562 337.488281 L 729.683594 337.488281 L 729.683594 267.722656 L 745.695312 267.722656 L 791.078125 324.34375 Z M 791.078125 267.707031 " fill-opacity="1" fill-rule="nonzero"/>
    <path fill="#3b3a3b" d="M 817.675781 267.707031 L 829.546875 267.707031 L 829.546875 326.253906 L 871.335938 326.253906 L 871.335938 337.488281 L 817.675781 337.488281 Z M 817.675781 267.707031 " fill-opacity="1" fill-rule="nonzero"/>
    <path fill="#3b3a3b" d="M 877.570312 267.796875 L 901.136719 301.402344 L 924.699219 267.796875 L 938.136719 267.796875 L 906.382812 312.078125 L 906.382812 337.488281 L 895.796875 337.488281 L 895.796875 312.171875 L 864.039062 267.796875 Z M 877.570312 267.796875 " fill-opacity="1" fill-rule="nonzero"/>
    <path fill="#3b3a3b" d="M 670.003906 367.707031 C 664.203125 367.707031 656.105469 368.535156 651.300781 371.023438 C 649.460938 371.941406 647.984375 373.78125 647.984375 375.34375 C 647.984375 376.453125 648.082031 377.003906 648.445312 377.367188 C 649.089844 378.105469 649.921875 378.378906 651.476562 378.746094 C 655.480469 379.554688 659.523438 379.984375 663.609375 380.035156 C 667.933594 380.222656 672.171875 380.222656 676.3125 380.222656 C 682.566406 380.3125 691.863281 381.695312 697.667969 384.363281 C 705.027344 387.953125 709.910156 393.9375 709.910156 401.550781 C 709.925781 402.230469 709.894531 402.902344 709.8125 403.574219 C 707.421875 421.4375 689.65625 426.035156 672.8125 426.035156 C 655.875 426.035156 645.011719 424.472656 629.367188 418.300781 L 628.171875 417.839844 L 630.65625 400.90625 L 632.957031 401.917969 C 643.632812 406.886719 656.0625 410.003906 668.117188 410.003906 C 671.800781 410.003906 677.140625 409.726562 681.464844 408.4375 C 685.792969 407.238281 688.542969 405.121094 688.542969 401.53125 C 688.542969 399.230469 686.148438 397.761719 681.730469 396.933594 C 679.5625 396.609375 677.382812 396.425781 675.195312 396.375 C 673.082031 396.285156 671.054688 396.285156 669.675781 396.285156 C 668.566406 396.285156 667.375 396.195312 666.175781 396.101562 C 661.757812 395.824219 657.429688 395.457031 653.035156 394.996094 C 645.390625 394.074219 638.121094 392.972656 632.136719 387.265625 C 628.953125 384.175781 627.226562 380.871094 627.226562 376.542969 C 627.207031 375.867188 627.238281 375.191406 627.316406 374.519531 C 628.054688 366.433594 632.652344 359.972656 640.847656 356.109375 C 649.132812 352.0625 661.925781 350.953125 670.851562 350.953125 C 681.714844 350.953125 694.507812 353.070312 704.71875 356.289062 L 706.371094 356.839844 L 700.113281 372.585938 L 698.457031 372.125 C 689.425781 369.453125 679.484375 367.707031 670.003906 367.707031 Z M 670.003906 367.707031 " fill-opacity="1" fill-rule="nonzero"/>
    <path fill="#3b3a3b" d="M 759.863281 353.53125 C 773.855469 353.53125 789.136719 363.195312 789.136719 376.632812 C 789.136719 389.984375 773.765625 400.019531 759.863281 400.019531 L 743.386719 400.019531 L 743.386719 424.792969 L 722.757812 424.792969 L 722.757812 353.53125 Z M 743.386719 369.546875 L 743.386719 383.910156 L 759.863281 383.910156 C 765.109375 383.910156 770.449219 380.960938 770.449219 376.632812 C 770.449219 372.402344 765.109375 369.554688 759.863281 369.554688 Z M 743.386719 369.546875 " fill-opacity="1" fill-rule="nonzero"/>
    <path fill="#3b3a3b" d="M 892.351562 389.433594 C 892.351562 411.710938 868.695312 426.070312 845.410156 426.070312 C 822.214844 426.070312 798.738281 411.527344 798.738281 389.433594 C 798.738281 367.15625 821.753906 352.332031 845.410156 352.332031 C 869.15625 352.328125 892.351562 366.988281 892.351562 389.433594 Z M 872.558594 389.433594 C 872.558594 376.910156 859.414062 368.164062 845.410156 368.164062 C 831.320312 368.164062 818.621094 376.820312 818.621094 389.433594 C 818.621094 401.953125 831.417969 410.164062 845.410156 410.164062 C 859.304688 410.148438 872.558594 401.953125 872.558594 389.433594 Z M 872.558594 389.433594 " fill-opacity="1" fill-rule="nonzero"/>
    <path fill="#3b3a3b" d="M 946.230469 353.53125 C 952.578125 353.53125 958.867188 355.09375 964.085938 358.316406 C 964.597656 358.589844 965.089844 358.894531 965.558594 359.238281 C 966.140625 359.554688 966.660156 359.953125 967.121094 360.429688 C 967.632812 360.910156 968.09375 361.433594 968.503906 361.996094 C 968.929688 362.464844 969.328125 362.957031 969.699219 363.46875 C 972.730469 367.246094 975.5 371.558594 975.5 376.730469 C 975.5 381.902344 972.828125 386.300781 969.699219 390.078125 C 969.332031 390.535156 968.867188 390.996094 968.503906 391.546875 L 967.121094 393.023438 C 964.910156 395.046875 961.414062 396.796875 958.378906 397.902344 L 978.261719 424.78125 L 955.894531 424.78125 L 937.394531 399.742188 L 925.882812 399.742188 L 925.882812 424.78125 L 905.160156 424.78125 L 905.160156 353.53125 Z M 925.882812 370.019531 L 925.882812 383.464844 L 946.230469 383.464844 C 951.476562 383.464844 956.632812 380.886719 956.632812 376.746094 C 956.632812 372.699219 951.382812 370.019531 946.230469 370.019531 Z M 925.882812 370.019531 " fill-opacity="1" fill-rule="nonzero"/>
    <path fill="#3b3a3b" d="M 1058.4375 370.019531 L 1033.214844 370.019531 L 1033.214844 424.78125 L 1012.136719 424.78125 L 1012.136719 370.019531 L 986.640625 370.019531 L 986.640625 353.53125 L 1058.417969 353.53125 Z M 1058.4375 370.019531 " fill-opacity="1" fill-rule="nonzero"/>
  </g>
</svg>
